<svg width="26" height="25" viewBox="0 0 26 25" fill="none" xmlns="http://www.w3.org/2000/svg">
<path d="M12.7067 24.4305C6.09123 24.4305 0.728312 19.0676 0.728312 12.4521C0.728312 5.83661 6.09123 0.473688 12.7067 0.473688C19.3222 0.473688 24.6851 5.83661 24.6851 12.4521C24.6851 19.0676 19.3222 24.4305 12.7067 24.4305Z" fill="#DBB4AF"/>
<path d="M12.7067 24.4305C6.09123 24.4305 0.728312 19.0676 0.728312 12.4521C0.728312 5.83661 6.09123 0.473688 12.7067 0.473688C19.3222 0.473688 24.6851 5.83661 24.6851 12.4521C24.6851 19.0676 19.3222 24.4305 12.7067 24.4305Z" stroke="#814F6A" stroke-width="0.679188" stroke-linecap="round"/>
<g clip-path="url(#clip0_23_152)">
<path d="M12.7067 6.79218L14.4556 10.3353L18.3666 10.9069L15.5367 13.6633L16.2045 17.5573L12.7067 15.7178L9.20891 17.5573L9.87678 13.6633L7.04683 10.9069L10.9578 10.3353L12.7067 6.79218Z" stroke="#814F6A" stroke-width="1.35838" stroke-linecap="round" stroke-linejoin="round"/>
</g>
<defs>
<clipPath id="clip0_23_152">
<rect width="13.5838" height="13.5838" fill="white" transform="translate(5.91484 5.66022)"/>
</clipPath>
</defs>
</svg>
