<svg width="32" height="26" viewBox="0 0 32 26" fill="none" xmlns="http://www.w3.org/2000/svg">
<path d="M3.66913 25.2512C2.8321 25.2512 2.1092 24.9595 1.50045 24.3761C0.917061 23.7674 0.625366 23.0445 0.625366 22.2074V3.94483C0.625366 3.10779 0.917061 2.39758 1.50045 1.81419C2.1092 1.20544 2.8321 0.901062 3.66913 0.901062H21.9317C22.7688 0.901062 23.479 1.20544 24.0624 1.81419C24.6711 2.39758 24.9755 3.10779 24.9755 3.94483V10.7933L31.0631 4.70577V21.4465L24.9755 15.359V22.2074C24.9755 23.0445 24.6711 23.7674 24.0624 24.3761C23.479 24.9595 22.7688 25.2512 21.9317 25.2512H3.66913ZM3.66913 22.2074H21.9317V3.94483H3.66913V22.2074ZM3.66913 22.2074V3.94483V22.2074Z" fill="#DBB4AF"/>
</svg>
